<svg width="147" height="29" viewBox="0 0 147 29" fill="none" xmlns="http://www.w3.org/2000/svg">
<path d="M1.68776 12.5506C2.44314 10.9345 3.47959 9.72235 4.79711 8.91427C6.11463 8.10619 7.62539 7.69337 9.32939 7.69337C12.3333 7.69337 14.6434 8.83522 16.242 11.1101L16.7514 10.671C16.2683 9.94194 15.9609 9.21291 15.8204 8.49267C15.6886 7.76364 15.6184 6.93799 15.6184 6.01572V0.0166016H21.5472V28.1325H15.8731V25.1813H15.2582C15.1089 26.1036 14.5468 26.9116 13.5455 27.5967C12.5529 28.2906 11.3057 28.6332 9.79492 28.6332C3.63769 28.6332 0.554688 25.2164 0.554688 18.3741C0.563471 16.1079 0.941161 14.158 1.68776 12.5506ZM7.96795 22.9327C8.85508 24.0746 10.0321 24.6455 11.5165 24.6455C12.8516 24.6455 13.8792 24.18 14.6083 23.2489C15.3373 22.3179 15.6974 21.1058 15.6974 19.6301V17.2322C15.6974 15.4843 15.3373 14.1317 14.6083 13.1743C13.8792 12.2169 12.8955 11.7338 11.6658 11.7338C10.2341 11.7338 9.03954 12.2959 8.08214 13.4026C7.12474 14.5181 6.64164 16.1167 6.64164 18.2072C6.63286 20.2186 7.08082 21.7909 7.96795 22.9327ZM24.2613 12.6385C25.0518 11.0662 26.1937 9.83654 27.6957 8.94941C29.1976 8.06227 30.9807 7.6231 33.0448 7.6231C36.2683 7.6231 38.675 8.56293 40.2648 10.4426C41.8546 12.3223 42.6452 14.8256 42.6452 17.9525V19.5159H29.0395C29.1889 21.2902 29.5929 22.5814 30.278 23.407C30.9543 24.2327 31.9117 24.6455 33.1502 24.6455C34.213 24.6455 35.0123 24.4347 35.5305 24.0131C36.0488 23.5915 36.4177 23.0293 36.6372 22.3179H42.4607C42.1708 24.2854 41.1871 25.8313 39.5182 26.9556C37.8494 28.0798 35.6623 28.6508 32.9745 28.6508C29.7949 28.6508 27.3531 27.7022 25.6491 25.8137C23.9363 23.9253 23.0843 21.3517 23.0843 18.1018C23.0755 16.0289 23.4708 14.2107 24.2613 12.6385ZM36.6021 16.0904V15.8357C36.5055 14.3776 36.1629 13.2621 35.5832 12.4892C35.0035 11.7162 34.1515 11.3297 33.036 11.3297C30.7084 11.3297 29.3733 12.9195 29.0395 16.0904H36.6021ZM48.5389 22.3091C48.5828 23.082 48.8814 23.7057 49.4084 24.18C49.9442 24.6543 50.7699 24.8914 51.8854 24.8914C52.8516 24.8914 53.6245 24.6982 54.1954 24.3117C54.7664 23.9253 55.0474 23.3807 55.0474 22.678C55.0474 22.0456 54.8806 21.5801 54.538 21.2814C54.1954 20.9828 53.5806 20.7632 52.6847 20.649L49.4436 20.1747C45.5437 19.6389 43.585 17.6538 43.585 14.2107C43.585 12.9986 43.8836 11.8919 44.4985 10.8993C45.1045 9.90681 46.0356 9.10751 47.2828 8.51902C48.5301 7.92174 50.0672 7.63188 51.8854 7.63188C54.4062 7.63188 56.3562 8.18524 57.7264 9.28318C59.0966 10.3899 59.8432 11.848 59.9662 13.6661H54.7312C54.6785 13.0074 54.4062 12.4716 53.9144 12.05C53.4137 11.6284 52.7286 11.4176 51.859 11.4176C50.9631 11.4176 50.2692 11.6108 49.7861 11.9973C49.303 12.3837 49.0571 12.8844 49.0571 13.4905C49.0571 14.0702 49.2328 14.5357 49.5841 14.8695C49.9354 15.212 50.5327 15.4316 51.3847 15.5282L54.7664 15.9674C58.6223 16.4505 60.5459 18.418 60.5459 21.8611C60.5459 24.0394 59.7554 25.7259 58.1656 26.9204C56.5758 28.1062 54.4765 28.7035 51.859 28.7035C49.022 28.7035 46.8876 28.1238 45.4559 26.9556C44.0242 25.7961 43.2337 24.2502 43.0931 22.3354H48.5389V22.3091ZM61.9952 0.0166016H67.8538V12.1993C67.8538 13.1216 67.7835 13.9472 67.6517 14.6762C67.52 15.4053 67.2126 16.1343 66.7207 16.8545L67.2301 17.2937L69.4084 14.606L74.6785 8.09741H80.9324L74.2394 15.9498L81.2574 28.1325H74.8542L70.2692 19.9463L67.8362 22.9327V28.1325H61.9776V0.0166016H61.9952ZM82.1094 0.0166016H88.0382V6.01572C88.0382 6.93799 87.9679 7.76364 87.8362 8.49267C87.7044 9.22169 87.397 9.95072 86.9051 10.671L87.4146 11.1101C89.2064 8.83522 91.5077 7.69337 94.3272 7.69337C96.9447 7.69337 98.9824 8.5278 100.441 10.2054C101.899 11.8831 102.619 14.5006 102.619 18.0579C102.619 21.4747 101.863 24.0921 100.344 25.9103C98.8243 27.7285 96.6636 28.642 93.8529 28.642C92.3509 28.642 91.1037 28.2994 90.1023 27.6055C89.1098 26.9116 88.5389 26.1123 88.3895 25.1901H87.7747V28.1325H82.1006L82.1094 0.0166016ZM89.0132 23.1523C89.7159 24.1448 90.7347 24.6455 92.0698 24.6455C93.4313 24.6455 94.5116 24.0834 95.3285 22.9503C96.1366 21.826 96.5494 20.2186 96.5494 18.1282C96.5494 16.0465 96.1542 14.4567 95.3636 13.3675C94.5731 12.2783 93.4664 11.7338 92.0347 11.7338C90.8226 11.7338 89.8388 12.2081 89.0922 13.1479C88.3369 14.0965 87.9679 15.3877 87.9679 17.039V19.1822C87.9592 20.8335 88.3105 22.151 89.0132 23.1523ZM104.182 0.0166016H110.84L104.182 6.16504V0.0166016ZM104.182 8.08862H110.111V28.1325H104.182V8.08862ZM112.948 8.08862H118.552C118.552 9.01089 118.482 9.83654 118.35 10.5656C118.218 11.2946 117.911 12.0236 117.419 12.7439L117.928 13.183L118.763 12.0588C119.492 11.0926 120.124 10.3284 120.651 9.76627C121.187 9.21291 121.855 8.7386 122.672 8.35213C123.48 7.96566 124.463 7.77242 125.596 7.77242V13.1479H124.542C123.084 13.1479 121.986 13.2182 121.249 13.3675C120.511 13.5168 119.931 13.8682 119.501 14.4391C119.079 15.01 118.868 15.9147 118.868 17.1444V28.1325H112.939L112.948 8.08862ZM125.245 18.3829C125.245 16.108 125.623 14.158 126.369 12.5419C127.125 10.9257 128.161 9.71357 129.479 8.90549C130.796 8.09741 132.307 7.68459 134.011 7.68459C137.015 7.68459 139.325 8.82644 140.924 11.1014L141.433 10.6622C140.95 9.93316 140.643 9.20413 140.502 8.48388C140.37 7.75485 140.3 6.9292 140.3 6.00694V0.0166016H146.229V28.1325H140.555V25.1813H139.94C139.791 26.1036 139.228 26.9116 138.227 27.5967C137.235 28.2906 135.987 28.6332 134.477 28.6332C128.319 28.642 125.245 25.2252 125.245 18.3829ZM132.641 22.9327C133.528 24.0746 134.705 24.6455 136.189 24.6455C137.524 24.6455 138.552 24.18 139.281 23.2489C140.01 22.3179 140.37 21.1058 140.37 19.6301V17.2322C140.37 15.4843 140.01 14.1317 139.281 13.1743C138.552 12.2169 137.568 11.7338 136.339 11.7338C134.907 11.7338 133.712 12.2959 132.755 13.4026C131.798 14.5181 131.314 16.1167 131.314 18.2072C131.314 20.2186 131.762 21.7909 132.641 22.9327Z" fill="white"/>
</svg>
